<svg xmlns="http://www.w3.org/2000/svg" width="13.017" height="14.594" viewBox="0 0 13.017 14.594">
  <g id="noun_basket_2452507" transform="translate(-14.3 -10.1)">
    <path id="Tracé_172" data-name="Tracé 172" d="M27.25,14.484a.882.882,0,0,0-.018-.712.894.894,0,0,0-.84-.548.818.818,0,0,0-.365.073L22.1,15V10.977a.877.877,0,1,0-1.754,0v4.292H15.232a.9.9,0,0,0-.658.274.974.974,0,0,0-.274.658.916.916,0,0,0,.913.913h.164l.694,6.119a1.649,1.649,0,0,0,1.662,1.461h7.014a1.663,1.663,0,0,0,1.662-1.461l.676-6.283a.207.207,0,0,0-.055-.146.2.2,0,0,0-.128-.055H22.7L26.757,15A.962.962,0,0,0,27.25,14.484ZM20.73,10.958a.523.523,0,0,1,.511-.511.5.5,0,0,1,.511.511v7.69a.511.511,0,1,1-1.023,0v-7.69Zm-6.046,5.224a.567.567,0,0,1,.164-.4.537.537,0,0,1,.4-.164h5.114V16.73H15.25A.554.554,0,0,1,14.684,16.182ZM26.045,23.2a1.275,1.275,0,0,1-1.3,1.132H17.734a1.29,1.29,0,0,1-1.3-1.132l-.658-6.082h4.585v1.534a.877.877,0,0,0,1.754,0V17.114H26.7Zm-3.927-6.612V15.379l4.073-1.754a.486.486,0,0,1,.219-.055.539.539,0,0,1,.511.749.545.545,0,0,1-.292.311Z"/>
  </g>
</svg>
