<svg xmlns="http://www.w3.org/2000/svg" width="23.141" height="18.657" viewBox="0 0 23.141 18.657">
  <g id="noun_Calendar_2421582" transform="translate(-1 -7.004)">
    <g id="Groupe_70" data-name="Groupe 70" transform="translate(1 7.004)">
      <path id="Tracé_175" data-name="Tracé 175" d="M54.411,31.061h-2.5a.373.373,0,0,1-.369-.422l1.664-12.315A.373.373,0,0,1,53.578,18h0a.373.373,0,0,1,.373.313l1.866,11.11a1.57,1.57,0,0,1,0,.231,1.407,1.407,0,0,1-1.407,1.407Zm-2.071-.746h2.071a.661.661,0,0,0,.661-.661,1.056,1.056,0,0,0,0-.108l-1.455-8.673Z" transform="translate(-32.68 -13.896)"/>
      <path id="Tracé_176" data-name="Tracé 176" d="M27.041,32.58H14.353a1.12,1.12,0,0,1-1.12-1.269l.944-6.99A.373.373,0,0,1,14.551,24h10.74a1.694,1.694,0,0,0,1.493-.911v-.03h0l2.407-4.814a.373.373,0,0,1,.7.216L28.153,31.61A1.12,1.12,0,0,1,27.041,32.58ZM14.9,24.743,14,31.412a.373.373,0,0,0,.369.422H27.056a.373.373,0,0,0,.373-.325l1.493-10.93-1.407,2.814v.037h0a2.441,2.441,0,0,1-2.224,1.314Z" transform="translate(-8.662 -13.923)"/>
      <path id="Tracé_177" data-name="Tracé 177" d="M26.093,24.717a2.448,2.448,0,0,1-2.448-2.448v-.537a.373.373,0,0,0-.373-.373h-8.4a.373.373,0,0,1-.332-.541l1.306-2.612A.373.373,0,0,1,16.181,18H30.362a.373.373,0,0,1,.332.541l-2.411,4.825V23.4h0A2.441,2.441,0,0,1,26.093,24.717Zm-10.613-4.1h7.792a1.12,1.12,0,0,1,1.12,1.12v.537a1.693,1.693,0,0,0,3.194.791v-.03h0l2.172-4.284H16.413Z" transform="translate(-9.464 -13.896)"/>
      <path id="Tracé_178" data-name="Tracé 178" d="M17.629,29.1H3.448A2.448,2.448,0,0,1,1,26.657V26.12A1.12,1.12,0,0,1,2.12,25H14.808a1.12,1.12,0,0,1,1.12,1.12v.537a1.709,1.709,0,0,0,1.7,1.7.373.373,0,1,1,0,.746ZM2.12,25.746a.373.373,0,0,0-.373.373v.537a1.709,1.709,0,0,0,1.7,1.7H15.871a2.437,2.437,0,0,1-.69-1.7V26.12a.373.373,0,0,0-.373-.373Z" transform="translate(-1 -18.284)"/>
      <path id="Tracé_179" data-name="Tracé 179" d="M14.875,21.317a.347.347,0,0,1-.168-.041.373.373,0,0,1-.164-.5l1.306-2.612a.373.373,0,1,1,.664.336l-1.306,2.612A.373.373,0,0,1,14.875,21.317Z" transform="translate(-9.464 -13.855)"/>
      <path id="Tracé_180" data-name="Tracé 180" d="M22.493,38.746h-1.12a.373.373,0,0,1,0-.746h1.12a.373.373,0,1,1,0,.746Z" transform="translate(-13.536 -26.433)"/>
      <path id="Tracé_181" data-name="Tracé 181" d="M30.493,38.746h-1.12a.373.373,0,1,1,0-.746h1.12a.373.373,0,1,1,0,.746Z" transform="translate(-18.551 -26.433)"/>
      <path id="Tracé_182" data-name="Tracé 182" d="M38.493,38.746h-1.12a.373.373,0,0,1,0-.746h1.12a.373.373,0,0,1,0,.746Z" transform="translate(-23.566 -26.433)"/>
      <path id="Tracé_183" data-name="Tracé 183" d="M46.493,38.746h-1.12a.373.373,0,0,1,0-.746h1.12a.373.373,0,1,1,0,.746Z" transform="translate(-28.58 -26.433)"/>
      <path id="Tracé_184" data-name="Tracé 184" d="M21.493,43.746h-1.12a.373.373,0,1,1,0-.746h1.12a.373.373,0,1,1,0,.746Z" transform="translate(-12.91 -29.567)"/>
      <path id="Tracé_185" data-name="Tracé 185" d="M29.493,43.746h-1.12a.373.373,0,0,1,0-.746h1.12a.373.373,0,0,1,0,.746Z" transform="translate(-17.924 -29.567)"/>
      <path id="Tracé_186" data-name="Tracé 186" d="M37.493,43.746h-1.12a.373.373,0,0,1,0-.746h1.12a.373.373,0,1,1,0,.746Z" transform="translate(-22.939 -29.567)"/>
      <path id="Tracé_187" data-name="Tracé 187" d="M45.493,43.746h-1.12a.373.373,0,0,1,0-.746h1.12a.373.373,0,0,1,0,.746Z" transform="translate(-27.953 -29.567)"/>
      <path id="Tracé_188" data-name="Tracé 188" d="M20.493,48.746h-1.12a.373.373,0,1,1,0-.746h1.12a.373.373,0,1,1,0,.746Z" transform="translate(-12.283 -32.701)"/>
      <path id="Tracé_189" data-name="Tracé 189" d="M28.493,48.746h-1.12a.373.373,0,0,1,0-.746h1.12a.373.373,0,1,1,0,.746Z" transform="translate(-17.297 -32.701)"/>
      <path id="Tracé_190" data-name="Tracé 190" d="M36.493,48.746h-1.12a.373.373,0,0,1,0-.746h1.12a.373.373,0,1,1,0,.746Z" transform="translate(-22.312 -32.701)"/>
      <path id="Tracé_191" data-name="Tracé 191" d="M44.493,48.746h-1.12a.373.373,0,1,1,0-.746h1.12a.373.373,0,1,1,0,.746Z" transform="translate(-27.326 -32.701)"/>
      <path id="Tracé_192" data-name="Tracé 192" d="M31.554,13.732H18.12A1.12,1.12,0,0,1,17,12.612V11.12A1.12,1.12,0,0,1,18.12,10H31.554a1.12,1.12,0,0,1,1.12,1.12v1.493a1.12,1.12,0,0,1-1.12,1.12ZM18.12,10.746a.373.373,0,0,0-.373.373v1.493a.373.373,0,0,0,.373.373H31.554a.373.373,0,0,0,.373-.373V11.12a.373.373,0,0,0-.373-.373Z" transform="translate(-11.029 -8.882)"/>
      <path id="Tracé_193" data-name="Tracé 193" d="M22.866,10.734A1.866,1.866,0,0,1,21,8.868a1.635,1.635,0,0,1,.063-.474,1.866,1.866,0,0,1,3.609,0,.374.374,0,0,1-.724.187,1.12,1.12,0,0,0-2.164,0,.974.974,0,0,0-.037.287,1.12,1.12,0,0,0,1.12,1.12.373.373,0,0,1,0,.746Z" transform="translate(-13.536 -7.004)"/>
      <path id="Tracé_194" data-name="Tracé 194" d="M34.866,10.734A1.866,1.866,0,0,1,33,8.868a1.635,1.635,0,0,1,.063-.474,1.866,1.866,0,0,1,3.609,0,.374.374,0,0,1-.724.187,1.12,1.12,0,0,0-2.164,0,.974.974,0,0,0-.037.287,1.12,1.12,0,0,0,1.12,1.12.373.373,0,1,1,0,.746Z" transform="translate(-21.058 -7.004)"/>
      <path id="Tracé_195" data-name="Tracé 195" d="M46.866,10.734A1.866,1.866,0,0,1,45,8.868a1.635,1.635,0,0,1,.063-.474,1.866,1.866,0,0,1,3.609,0,.374.374,0,0,1-.724.187,1.12,1.12,0,0,0-2.164,0,.974.974,0,0,0-.037.287,1.12,1.12,0,0,0,1.12,1.12.373.373,0,1,1,0,.746Z" transform="translate(-28.58 -7.004)"/>
    </g>
  </g>
</svg>
