<svg xmlns="http://www.w3.org/2000/svg" width="14.361" height="10.679" viewBox="0 0 14.361 10.679">
  <g id="noun_Credit_Card_2119994" data-name="noun_Credit Card_2119994" transform="translate(-57 83.923)">
    <g id="Groupe_68" data-name="Groupe 68" transform="translate(57 -83.923)">
      <path id="Tracé_173" data-name="Tracé 173" d="M12.473,21a1.5,1.5,0,0,0-1.03.385A1.454,1.454,0,0,0,11,22.473v7.733a1.454,1.454,0,0,0,.443,1.087,1.5,1.5,0,0,0,1.03.386H23.888a1.5,1.5,0,0,0,1.03-.386,1.454,1.454,0,0,0,.443-1.087V22.473a1.454,1.454,0,0,0-.443-1.087A1.5,1.5,0,0,0,23.888,21Zm0,.368H23.888a1.126,1.126,0,0,1,.777.282,1.08,1.08,0,0,1,.328.823v7.733a1.067,1.067,0,0,1-.328.817,1.13,1.13,0,0,1-.777.288H12.473a1.13,1.13,0,0,1-.777-.288,1.067,1.067,0,0,1-.328-.817V22.473a1.08,1.08,0,0,1,.328-.823A1.126,1.126,0,0,1,12.473,21.368Zm8.1,1.473a1.1,1.1,0,1,0,.921,1.709,1.1,1.1,0,1,0,0-1.208A1.1,1.1,0,0,0,20.574,22.841Zm-7.767.006a.185.185,0,1,0,.035.368h3.866a.184.184,0,1,0,0-.368Zm7.767.362a.736.736,0,1,1-.736.736A.734.734,0,0,1,20.574,23.209Zm1.841,0a.736.736,0,1,1-.736.736A.734.734,0,0,1,22.415,23.209Zm-9.609,1.1a.185.185,0,0,0,.035.368h1.841a.184.184,0,1,0,0-.368H12.807Zm0,4.051a.185.185,0,0,0,.035.368H23.52a.184.184,0,1,0,0-.368Zm0,1.473a.185.185,0,0,0,.035.368H23.52a.184.184,0,1,0,0-.368Z" transform="translate(-11 -21)"/>
    </g>
  </g>
</svg>
