<svg xmlns="http://www.w3.org/2000/svg" width="11.317" height="15.089" viewBox="0 0 11.317 15.089">
  <g id="noun_Location_2427428" transform="translate(-27.5 -20)">
    <path id="Tracé_111" data-name="Tracé 111" d="M35.856,61.028c-1.578-2.03-2.763-3.589-3.35-4.367-.381-.507-.873-1.17-1.467-2.059l-.229-.342" transform="translate(-2.44 -25.939)"/>
    <path id="Tracé_112" data-name="Tracé 112" d="M42.629,32.5a2.629,2.629,0,1,0,2.629,2.629A2.629,2.629,0,0,0,42.629,32.5Zm0,4.733a2.1,2.1,0,1,1,2.1-2.1A2.1,2.1,0,0,1,42.629,37.233Z" transform="translate(-9.471 -9.428)"/>
    <path id="Tracé_113" data-name="Tracé 113" d="M33.158,20A5.658,5.658,0,0,0,27.5,25.658a6.471,6.471,0,0,0,.226,1.589,5.6,5.6,0,0,0,.606,1.368c.251.377.636.943,1.122,1.62s.858,1.162,1.828,2.424c.754.963,1.378,1.786,1.876,2.429.5-.644,1.134-1.466,1.876-2.429.971-1.257,1.34-1.745,1.828-2.424s.87-1.242,1.122-1.62a5.6,5.6,0,0,0,.606-1.368,6.471,6.471,0,0,0,.226-1.589A5.658,5.658,0,0,0,33.158,20Zm4.949,7.107a5.113,5.113,0,0,1-.553,1.257c-.345.518-.719,1.059-1.1,1.592-.48.671-.837,1.137-1.816,2.407l-1.479,1.9L31.68,32.35c-.978-1.257-1.335-1.735-1.816-2.407-.382-.533-.754-1.074-1.112-1.607a5.108,5.108,0,0,1-.543-1.23A5.983,5.983,0,0,1,28,25.658a5.155,5.155,0,1,1,10.311,0,5.983,5.983,0,0,1-.206,1.449Z" transform="translate(0 0)"/>
  </g>
</svg>
