<svg xmlns="http://www.w3.org/2000/svg" width="210.698" height="99.264" viewBox="0 0 210.698 99.264">
  <g id="logo" transform="translate(-61 -82.596)">
    <path id="Tracé_46" data-name="Tracé 46" d="M62,97.849a51.689,51.689,0,0,1,9.773-.861c5.348,0,8.791.924,11.371,3.014a8.681,8.681,0,0,1,3.444,7.314c0,3.99-2.644,7.5-7.007,9.1v.123c3.934.983,8.544,4.245,8.544,10.388a11.172,11.172,0,0,1-3.5,8.3c-2.886,2.643-7.56,3.871-14.322,3.871a62.763,62.763,0,0,1-8.3-.49Zm5.348,16.965H72.2c5.656,0,8.974-2.951,8.974-6.945,0-4.858-3.687-6.762-9.1-6.762a22.907,22.907,0,0,0-4.732.368Zm0,19.855a28.53,28.53,0,0,0,4.487.245c5.531,0,10.634-2.027,10.634-8.053,0-5.653-4.855-7.991-10.7-7.991H67.347Z" transform="translate(0 -1.653)" fill="#63bf7a" stroke="#fff" stroke-miterlimit="10" stroke-width="2"/>
    <path id="Tracé_47" data-name="Tracé 47" d="M105.417,126.846c.122,7.314,4.795,10.325,10.2,10.325a19.56,19.56,0,0,0,8.235-1.537l.925,3.874a24.1,24.1,0,0,1-9.9,1.845c-9.16,0-14.629-6.027-14.629-15s5.288-16.045,13.955-16.045c9.712,0,12.295,8.543,12.295,14.014a20.691,20.691,0,0,1-.185,2.52Zm15.858-3.874c.06-3.442-1.414-8.789-7.5-8.789-5.47,0-7.868,5.04-8.3,8.789Z" transform="translate(-5.779 -3.665)" fill="#63bf7a" stroke="#fff" stroke-miterlimit="10" stroke-width="2"/>
    <path id="Tracé_48" data-name="Tracé 48" d="M137.291,97.849a51.7,51.7,0,0,1,9.774-.861c5.348,0,8.791.924,11.371,3.014a8.68,8.68,0,0,1,3.444,7.314c0,3.99-2.643,7.5-7.007,9.1v.123c3.934.983,8.544,4.245,8.544,10.388a11.171,11.171,0,0,1-3.5,8.3c-2.886,2.643-7.56,3.871-14.322,3.871a62.772,62.772,0,0,1-8.3-.49Zm5.348,16.965h4.855c5.656,0,8.974-2.951,8.974-6.945,0-4.858-3.689-6.762-9.1-6.762a22.915,22.915,0,0,0-4.733.368Zm0,19.855a28.531,28.531,0,0,0,4.487.245c5.531,0,10.633-2.027,10.633-8.053,0-5.653-4.855-7.991-10.7-7.991h-4.425Z" transform="translate(-11.375 -1.653)" fill="#63bf7a" stroke="#fff" stroke-miterlimit="10" stroke-width="2"/>
    <path id="Tracé_49" data-name="Tracé 49" d="M177.342,140.859v-29.75h5.41v29.75Z" transform="translate(-17.426 -3.786)" fill="#63bf7a" stroke="#fff" stroke-miterlimit="10" stroke-width="2"/>
    <path id="Tracé_50" data-name="Tracé 50" d="M222.032,125.618c0,11-7.62,15.8-14.812,15.8-8.053,0-14.262-5.9-14.262-15.305,0-9.957,6.516-15.8,14.753-15.8C216.257,110.313,222.032,116.519,222.032,125.618Zm-23.6.306c0,6.516,3.751,11.434,9.036,11.434,5.162,0,9.037-4.855,9.037-11.556,0-5.04-2.52-11.432-8.914-11.432s-9.162,5.9-9.162,11.558Z" transform="translate(-19.785 -3.666)" fill="#63bf7a" stroke="#fff" stroke-miterlimit="10" stroke-width="2"/>
    <g id="Votre_panier_frais_" data-name="Votre panier frais " transform="translate(126.956 141.729)">
      <text id="Votre_panier_frais_2" data-name="Votre panier frais !" transform="translate(14.742 13)" font-size="16" font-family="Helvetica"><tspan x="0" y="0">Votre panier frais !</tspan></text>
    </g>
    <g id="Groupe_36" data-name="Groupe 36" transform="translate(158.318 86.048)">
      <path id="Tracé_100" data-name="Tracé 100" d="M185.769,86.048s1.656,4.05-5.441,6.771c-3.857,1.478-6.818,5.263-3.281,11.121.293-2.616,1.548-8.384,6.948-9.7,0,0-5.026,1.88-5.47,10.386,2.583.362,8.639.607,10.442-4.65C191.338,93.03,185.769,86.048,185.769,86.048Z" transform="translate(-175.46 -86.048)" fill="#63bf7a" stroke="#fff" stroke-miterlimit="10" stroke-width="1"/>
      <path id="Tracé_101" data-name="Tracé 101" d="M178.528,104.589a16.033,16.033,0,0,0,10.017-13.432,20.467,20.467,0,0,0-2.781-5.109s1.656,4.05-5.441,6.771c-3.857,1.478-6.818,5.263-3.281,11.121.293-2.616,1.548-8.384,6.948-9.7C183.994,94.238,178.984,96.114,178.528,104.589Z" transform="translate(-175.459 -86.048)" fill="#63bf7a" stroke="#fff" stroke-miterlimit="10" stroke-width="1"/>
      <circle id="Ellipse_2" data-name="Ellipse 2" cx="0.513" cy="0.513" r="0.513" transform="translate(0.528 5.881)" fill="#63bf7a" stroke="#fff" stroke-miterlimit="10" stroke-width="1"/>
      <g id="Groupe_35" data-name="Groupe 35" transform="translate(1.406 1.489)">
        <circle id="Ellipse_3" data-name="Ellipse 3" cx="0.366" cy="0.366" r="0.366" transform="translate(0.879 4.026)" fill="#63bf7a" stroke="#fff" stroke-miterlimit="10" stroke-width="1"/>
        <circle id="Ellipse_4" data-name="Ellipse 4" cx="0.915" cy="0.915" r="0.915" fill="#63bf7a" stroke="#fff" stroke-miterlimit="10" stroke-width="1"/>
        <circle id="Ellipse_5" data-name="Ellipse 5" cx="0.293" cy="0.293" r="0.293" transform="translate(3.441 2.709)" fill="#63bf7a" stroke="#fff" stroke-miterlimit="10" stroke-width="1"/>
        <circle id="Ellipse_6" data-name="Ellipse 6" cx="0.842" cy="0.842" r="0.842" transform="translate(5.345 0.513)" fill="#63bf7a" stroke="#fff" stroke-miterlimit="10" stroke-width="1"/>
      </g>
    </g>
  </g>
</svg>
