<svg xmlns="http://www.w3.org/2000/svg" width="29.976" height="18.451" viewBox="0 0 29.976 18.451">
  <g id="bio" transform="translate(0 -95.397)">
    <g id="Groupe_65" data-name="Groupe 65" transform="translate(0 99.56)">
      <path id="Tracé_160" data-name="Tracé 160" d="M7.691,172.617a3.482,3.482,0,0,0,1.2-2.627A3.386,3.386,0,0,0,7.576,167.2,5.835,5.835,0,0,0,3.7,166.125a16.232,16.232,0,0,0-3.063.273.8.8,0,0,0-.637.786v12.078a.8.8,0,0,0,.693.8,19.083,19.083,0,0,0,2.57.154c2.253,0,3.775-.432,4.805-1.375A4.089,4.089,0,0,0,9.35,175.8,3.754,3.754,0,0,0,7.691,172.617Zm-2.008-2.464c0,.925-.958,1.255-1.855,1.255H3.192v-2.439c.179-.01.379-.016.6-.016C5.683,168.954,5.683,169.764,5.683,170.154Zm-2.491,4.065H3.7c.883,0,2.366.2,2.366,1.564,0,1.05-.789,1.583-2.348,1.583q-.3,0-.527-.008v-3.14Z" transform="translate(0 -166.015)" fill="#57af3a"/>
      <path id="Tracé_161" data-name="Tracé 161" d="M196.043,167.629h-1.585a.8.8,0,0,0-.8.8v12.28a.8.8,0,0,0,.8.8h1.585a.8.8,0,0,0,.8-.8v-12.28A.8.8,0,0,0,196.043,167.629Z" transform="translate(-181.956 -167.429)" fill="#57af3a"/>
      <path id="Tracé_162" data-name="Tracé 162" d="M290.336,164.312c-3.831,0-6.507,2.983-6.507,7.253,0,4.142,2.6,7.035,6.325,7.035,3.239,0,6.506-2.248,6.506-7.272C296.66,167.2,294.06,164.312,290.336,164.312Z" transform="translate(-266.684 -164.312)" fill="#57af3a"/>
    </g>
    <g id="Groupe_66" data-name="Groupe 66" transform="translate(0 101.277)">
      <path id="Tracé_163" data-name="Tracé 163" d="M290.981,192.74c-3.566,0-6.128,2.585-6.466,6.386.332,3.681,2.821,6.184,6.284,6.184,3.038,0,6.1-1.979,6.469-6.372C296.947,195.25,294.453,192.74,290.981,192.74Z" transform="translate(-267.329 -192.74)" fill="#429623"/>
      <path id="Tracé_164" data-name="Tracé 164" d="M.693,225.721a18.863,18.863,0,0,0,2.5.153v-8.315c.179-.01.379-.016.6-.016,1.892,0,1.892.811,1.892,1.2,0,.706-.559,1.064-1.222,1.194.784.124,1.6.5,1.6,1.508a1.446,1.446,0,0,1-1.31,1.479,1.472,1.472,0,0,1,1.31,1.448,1.371,1.371,0,0,1-.99,1.381A5.4,5.4,0,0,0,8.069,224.5a4.158,4.158,0,0,0,1.02-1.547,3.805,3.805,0,0,0-1.4-1.746,3.538,3.538,0,0,0,1.1-1.78,3.939,3.939,0,0,0-1.1-1.148,3.609,3.609,0,0,0,.9-1.208,3.153,3.153,0,0,0-1.013-1.285,4.882,4.882,0,0,0-2.581-1,.956.956,0,0,1,.688,1.027c0,.925-.958,1.255-1.855,1.255H3.192v-2.347a15.338,15.338,0,0,0-2.555.265.8.8,0,0,0-.638.787v9.151A.8.8,0,0,0,.693,225.721Z" transform="translate(0 -213.395)" fill="#429623"/>
      <path id="Tracé_165" data-name="Tracé 165" d="M196.043,216.1h-1.585a.8.8,0,0,0-.8.8v9.353a.8.8,0,0,0,.8.8h1.585a.8.8,0,0,0,.8-.8V216.9A.8.8,0,0,0,196.043,216.1Z" transform="translate(-181.956 -214.684)" fill="#429623"/>
    </g>
    <g id="Groupe_67" data-name="Groupe 67" transform="translate(20.653 102.59)">
      <path id="Tracé_166" data-name="Tracé 166" d="M344.372,214.473c-1.4.689-2.466,3.785-2.466,5.262a3.018,3.018,0,0,0,2.466,2.966Z" transform="translate(-341.906 -214.473)" fill="#ebf0f2"/>
      <path id="Tracé_167" data-name="Tracé 167" d="M397.383,214.473c1.4.689,2.464,3.785,2.464,5.262a3.019,3.019,0,0,1-2.464,2.966Z" transform="translate(-394.032 -214.473)" fill="#ebf0f2"/>
    </g>
    <path id="Tracé_168" data-name="Tracé 168" d="M121.966,97.091c-.505,1.479.933,4.419,1.978,5.464a3.017,3.017,0,0,0,3.84.354Z" transform="translate(-114.5 -1.591)" fill="#57af3a"/>
    <path id="Tracé_169" data-name="Tracé 169" d="M123.573,95.5c1.478-.5,4.417.934,5.462,1.979a3.018,3.018,0,0,1,.356,3.839Z" transform="translate(-116.109)" fill="#6bd146"/>
    <path id="Tracé_170" data-name="Tracé 170" d="M226.05,97.091c.505,1.479-.933,4.419-1.979,5.464a3.016,3.016,0,0,1-3.84.354Z" transform="translate(-206.928 -1.591)" fill="#57af3a"/>
    <path id="Tracé_171" data-name="Tracé 171" d="M217.87,95.5c-1.478-.5-4.418.934-5.463,1.979a3.018,3.018,0,0,0-.355,3.839Z" transform="translate(-198.747)" fill="#6bd146"/>
  </g>
</svg>
